<svg width="600" height="600" viewBox="0 0 600 600" fill="none" xmlns="http://www.w3.org/2000/svg">
<rect width="600" height="600" fill="white"/>
<g filter="url(#filter0_ii_13_2)">
<path d="M169.113 175.171C204.653 189.567 228.57 179.472 236.086 172.626L238.808 282.603L283.39 323.921L251.452 337.163L180.045 270.985L169.113 175.171Z" fill="url(#paint0_linear_13_2)"/>
</g>
<g opacity="0.5" filter="url(#filter1_if_13_2)">
<path d="M155.136 178.545C190.675 192.941 214.592 182.846 222.108 176L224.83 285.977L269.412 327.295L237.474 340.537L166.067 274.359L155.136 178.545Z" fill="url(#paint1_linear_13_2)"/>
</g>
<g filter="url(#filter2_ii_13_2)">
<path d="M366.561 427.044L337.259 408.478L345.696 395.292C347.01 393.24 347.429 390.74 346.857 388.371L343.233 373.355L399.231 411.508L359.171 478.035L366.561 427.044Z" fill="url(#paint2_linear_13_2)"/>
</g>
<g opacity="0.5" filter="url(#filter3_if_13_2)">
<path d="M376.652 424.609L347.35 406.042L357.843 389.644L353.324 370.919L409.322 409.073L369.262 475.599L376.652 424.609Z" fill="url(#paint3_linear_13_2)"/>
</g>
<g filter="url(#filter4_ii_13_2)">
<path d="M291.216 485.83L301.725 444.317L282.13 441.224C279.651 440.833 277.451 439.419 276.065 437.326L263.475 418.31L245.872 500.01L345.532 524.683L291.216 485.83Z" fill="url(#paint4_linear_13_2)"/>
</g>
<g opacity="0.5" filter="url(#filter5_if_13_2)">
<path d="M279.911 488.56L290.419 447.046L266.934 443.34L252.17 421.039L234.566 502.74L334.226 527.413L279.911 488.56Z" fill="url(#paint5_linear_13_2)"/>
</g>
<g filter="url(#filter6_d_13_2)">
<path d="M170.85 123.591C166.398 138.65 174.997 154.466 190.056 158.918C205.115 163.37 220.932 154.771 225.384 139.711C229.835 124.652 221.236 108.836 206.177 104.384C191.118 99.9324 175.301 108.531 170.85 123.591Z" fill="url(#paint6_linear_13_2)" shape-rendering="crispEdges"/>
</g>
<path fill-rule="evenodd" clip-rule="evenodd" d="M152.547 123.762C159.739 99.4324 185.292 85.5397 209.622 92.7317C233.951 99.9237 247.844 125.477 240.652 149.806L242.368 150.314C249.84 125.037 235.406 98.488 210.129 91.0158C184.852 83.5437 158.303 97.9775 150.831 123.255L152.547 123.762Z" fill="url(#paint7_linear_13_2)"/>
<path fill-rule="evenodd" clip-rule="evenodd" d="M241.563 126.199L197.561 131.679L197.783 133.454L241.784 127.974L241.563 126.199Z" fill="url(#paint8_linear_13_2)"/>
<path fill-rule="evenodd" clip-rule="evenodd" d="M179.024 95.9264L196.688 134.112L198.312 133.36L180.648 95.1752L179.024 95.9264Z" fill="url(#paint9_linear_13_2)"/>
<path d="M176.104 91.6576C175.475 93.7836 176.689 96.0165 178.815 96.645C180.941 97.2734 183.174 96.0594 183.803 93.9334C184.431 91.8074 183.217 89.5745 181.091 88.9461C178.965 88.3176 176.732 89.5316 176.104 91.6576Z" fill="url(#paint10_linear_13_2)"/>
<path d="M239.749 126.517C240.168 125.1 241.656 124.29 243.074 124.709C244.491 125.128 245.3 126.617 244.881 128.034C244.463 129.452 242.974 130.261 241.557 129.842C240.139 129.423 239.33 127.934 239.749 126.517Z" fill="url(#paint11_linear_13_2)"/>
<g filter="url(#filter7_ii_13_2)">
<path d="M267.317 413.387C281.867 428.454 305.876 428.874 320.943 414.324C336.011 399.775 336.431 375.765 321.881 360.698C307.331 345.631 283.322 345.211 268.255 359.76C253.187 374.31 252.768 398.319 267.317 413.387Z" fill="url(#paint12_linear_13_2)"/>
</g>
<path fill-rule="evenodd" clip-rule="evenodd" d="M255.267 434.947C231.646 410.485 232.328 371.507 256.789 347.886C281.25 324.266 320.229 324.947 343.85 349.408L345.137 348.166C320.83 322.993 280.718 322.292 255.546 346.599C230.374 370.906 229.673 411.018 253.98 436.19L255.267 434.947Z" fill="url(#paint13_linear_13_2)"/>
<path d="M233.712 386.294C235.766 388.421 239.156 388.48 241.283 386.426C243.41 384.372 243.469 380.983 241.415 378.855C239.361 376.728 235.972 376.669 233.845 378.723C231.718 380.777 231.658 384.167 233.712 386.294Z" fill="url(#paint14_linear_13_2)"/>
<path d="M316.013 335.352C314.644 333.934 314.684 331.674 316.102 330.305C317.52 328.936 319.779 328.975 321.149 330.393C322.518 331.811 322.479 334.071 321.061 335.44C319.642 336.81 317.383 336.77 316.013 335.352Z" fill="url(#paint15_linear_13_2)"/>
<path fill-rule="evenodd" clip-rule="evenodd" d="M310.921 166.556L310.938 176.66L312.116 176.658L312.098 166.554L310.921 166.556ZM310.898 164.576C311.069 164.737 311.275 164.818 311.516 164.818C311.758 164.817 311.963 164.736 312.134 164.573C312.305 164.406 312.39 164.207 312.39 163.974C312.389 163.742 312.303 163.545 312.132 163.383C311.961 163.216 311.755 163.133 311.513 163.134C311.272 163.134 311.066 163.218 310.895 163.385C310.725 163.547 310.64 163.745 310.64 163.977C310.64 164.21 310.726 164.409 310.898 164.576ZM282.224 176.71L282.201 163.237L283.378 163.235L283.387 168.531L283.493 168.531C283.624 168.228 283.812 167.916 284.057 167.596C284.306 167.275 284.632 167.007 285.035 166.791C285.443 166.571 285.956 166.461 286.574 166.46C287.403 166.458 288.131 166.676 288.759 167.114C289.387 167.547 289.877 168.156 290.229 168.94C290.582 169.72 290.759 170.63 290.76 171.669C290.762 172.713 290.588 173.627 290.239 174.413C289.894 175.199 289.408 175.811 288.782 176.251C288.16 176.691 287.437 176.911 286.612 176.913C285.998 176.914 285.485 176.805 285.072 176.586C284.664 176.368 284.335 176.099 284.084 175.779C283.833 175.455 283.64 175.139 283.503 174.833L283.359 174.833L283.362 176.708L282.224 176.71ZM283.373 171.662C283.374 172.478 283.496 173.201 283.739 173.832C283.985 174.459 284.337 174.952 284.794 175.311C285.255 175.665 285.812 175.842 286.465 175.841C287.136 175.839 287.704 175.654 288.168 175.285C288.632 174.911 288.985 174.409 289.225 173.777C289.465 173.145 289.584 172.436 289.583 171.651C289.582 170.875 289.46 170.176 289.217 169.554C288.98 168.931 288.628 168.438 288.162 168.075C287.697 167.708 287.126 167.524 286.451 167.526C285.793 167.527 285.234 167.705 284.774 168.061C284.319 168.413 283.971 168.9 283.731 169.524C283.491 170.142 283.372 170.855 283.373 171.662ZM264.723 166.636L264.74 176.74L265.911 176.738L265.9 170.212C265.899 169.712 266.017 169.267 266.253 168.876C266.489 168.486 266.811 168.18 267.218 167.96C267.63 167.736 268.099 167.623 268.626 167.622C268.779 167.622 268.922 167.631 269.053 167.648C269.185 167.665 269.277 167.678 269.33 167.687L269.327 166.496C269.249 166.492 269.15 166.488 269.031 166.484C268.913 166.479 268.806 166.477 268.709 166.478C268.073 166.479 267.503 166.638 267 166.954C266.5 167.266 266.15 167.677 265.949 168.186L265.864 168.186L265.861 166.634L264.723 166.636ZM272.647 176.272C273.319 176.714 274.091 176.934 274.964 176.933C275.836 176.931 276.606 176.709 277.271 176.264C277.942 175.82 278.465 175.208 278.84 174.426C279.216 173.641 279.403 172.735 279.401 171.709C279.4 170.674 279.207 169.764 278.824 168.98C278.446 168.195 277.923 167.582 277.255 167.14C276.588 166.699 275.818 166.478 274.945 166.48C274.073 166.481 273.301 166.704 272.631 167.148C271.965 167.588 271.444 168.203 271.068 168.993C270.693 169.779 270.506 170.689 270.508 171.724C270.509 172.75 270.699 173.655 271.078 174.44C271.456 175.22 271.979 175.831 272.647 176.272ZM276.743 175.292C276.257 175.67 275.663 175.859 274.962 175.861C274.26 175.862 273.665 175.674 273.178 175.298C272.69 174.922 272.319 174.42 272.064 173.793C271.813 173.167 271.686 172.476 271.685 171.722C271.684 170.968 271.807 170.274 272.056 169.643C272.31 169.011 272.679 168.503 273.165 168.121C273.656 167.739 274.25 167.547 274.947 167.546C275.649 167.544 276.243 167.734 276.731 168.115C277.218 168.496 277.588 169.001 277.839 169.632C278.094 170.264 278.223 170.956 278.224 171.711C278.225 172.465 278.099 173.156 277.846 173.783C277.597 174.411 277.23 174.914 276.743 175.292ZM294.952 176.234C295.624 176.675 296.396 176.896 297.269 176.894C298.142 176.893 298.911 176.67 299.577 176.226C300.247 175.782 300.77 175.169 301.146 174.388C301.522 173.602 301.709 172.696 301.707 171.67C301.705 170.635 301.513 169.725 301.13 168.941C300.751 168.156 300.228 167.543 299.561 167.102C298.894 166.66 298.123 166.44 297.251 166.441C296.378 166.443 295.607 166.665 294.936 167.11C294.27 167.549 293.75 168.164 293.374 168.954C292.998 169.74 292.811 170.65 292.813 171.685C292.815 172.711 293.005 173.617 293.383 174.401C293.762 175.181 294.285 175.792 294.952 176.234ZM299.049 175.253C298.563 175.631 297.969 175.821 297.267 175.822C296.565 175.823 295.971 175.635 295.483 175.259C294.996 174.883 294.624 174.381 294.369 173.755C294.118 173.128 293.992 172.437 293.99 171.683C293.989 170.929 294.113 170.236 294.362 169.604C294.615 168.972 294.985 168.465 295.471 168.082C295.961 167.7 296.555 167.508 297.253 167.507C297.954 167.506 298.549 167.695 299.036 168.076C299.524 168.457 299.893 168.963 300.144 169.594C300.4 170.225 300.528 170.917 300.529 171.672C300.531 172.426 300.405 173.117 300.151 173.745C299.902 174.372 299.535 174.875 299.049 175.253ZM308.248 166.56L308.25 167.58L306.112 167.584L306.123 174.03C306.124 174.451 306.197 174.782 306.342 175.023C306.487 175.26 306.676 175.428 306.909 175.529C307.141 175.625 307.389 175.673 307.652 175.672C307.806 175.672 307.937 175.663 308.047 175.645C308.157 175.623 308.253 175.601 308.336 175.579L308.588 176.638C308.474 176.682 308.334 176.721 308.167 176.757C308.001 176.796 307.795 176.817 307.549 176.817C307.119 176.818 306.705 176.724 306.305 176.536C305.91 176.348 305.585 176.068 305.33 175.696C305.075 175.324 304.947 174.861 304.946 174.309L304.935 167.586L303.428 167.588L303.426 166.569L304.933 166.566L304.929 164.145L306.106 164.143L306.11 166.564L308.248 166.56ZM319.16 176.856C318.256 176.858 317.469 176.633 316.797 176.183C316.13 175.732 315.611 175.115 315.241 174.33C314.872 173.546 314.686 172.651 314.684 171.647C314.682 170.634 314.867 169.733 315.239 168.943C315.614 168.153 316.135 167.533 316.801 167.085C317.467 166.632 318.24 166.405 319.122 166.403C319.797 166.402 320.409 166.532 320.958 166.795C321.507 167.052 321.959 167.418 322.315 167.891C322.675 168.36 322.902 168.907 322.995 169.534L321.811 169.536C321.688 168.966 321.391 168.48 320.921 168.078C320.455 167.67 319.863 167.468 319.144 167.469C318.499 167.47 317.929 167.646 317.434 167.998C316.939 168.345 316.552 168.831 316.272 169.454C315.997 170.073 315.86 170.79 315.862 171.606C315.863 172.426 316 173.151 316.273 173.782C316.546 174.409 316.929 174.9 317.42 175.254C317.917 175.608 318.496 175.785 319.158 175.784C319.605 175.783 320.013 175.699 320.381 175.532C320.754 175.36 321.065 175.118 321.314 174.806C321.568 174.495 321.738 174.124 321.825 173.694L323.009 173.692C322.923 174.302 322.706 174.846 322.361 175.324C322.02 175.799 321.575 176.172 321.027 176.445C320.484 176.718 319.862 176.855 319.16 176.856ZM331.227 169.04L332.299 168.735C332.052 168.003 331.65 167.43 331.092 167.014C330.539 166.594 329.8 166.385 328.874 166.386C328.195 166.387 327.59 166.509 327.059 166.751C326.529 166.993 326.113 167.327 325.811 167.753C325.509 168.175 325.359 168.664 325.36 169.221C325.361 169.896 325.572 170.462 325.994 170.917C326.416 171.372 327.066 171.705 327.943 171.914L329.595 172.305C330.148 172.436 330.56 172.641 330.833 172.922C331.105 173.197 331.242 173.539 331.242 173.947C331.243 174.473 331.012 174.912 330.547 175.264C330.083 175.611 329.463 175.786 328.687 175.787C327.994 175.788 327.434 175.636 327.008 175.329C326.587 175.023 326.303 174.57 326.157 173.969L325.033 174.247C325.214 175.089 325.625 175.733 326.267 176.179C326.908 176.621 327.722 176.841 328.708 176.839C329.449 176.838 330.1 176.712 330.661 176.461C331.227 176.206 331.667 175.856 331.982 175.413C332.297 174.969 332.454 174.463 332.453 173.892C332.452 173.217 332.238 172.656 331.812 172.21C331.39 171.763 330.756 171.437 329.909 171.233L328.382 170.86C327.755 170.704 327.289 170.492 326.986 170.225C326.688 169.953 326.538 169.6 326.537 169.166C326.536 168.653 326.755 168.234 327.193 167.909C327.631 167.583 328.192 167.42 328.876 167.419C329.332 167.418 329.714 167.49 330.021 167.634C330.333 167.778 330.585 167.973 330.779 168.218C330.972 168.464 331.122 168.737 331.227 169.04ZM350.922 186.801C352.327 187.719 353.129 189.011 353.329 190.678L357.276 190.671C357.219 188.971 356.69 187.454 355.69 186.118C354.701 184.782 353.361 183.732 351.671 182.967C349.982 182.192 348.051 181.806 345.881 181.81C343.732 181.814 341.786 182.212 340.044 183.004C338.313 183.786 336.934 184.884 335.906 186.3C334.889 187.706 334.382 189.351 334.385 191.237C334.389 193.506 335.159 195.341 336.697 196.742C338.234 198.143 340.319 199.219 342.952 199.971L347.098 201.148C348.283 201.475 349.385 201.857 350.406 202.293C351.426 202.73 352.25 203.299 352.876 204C353.502 204.7 353.816 205.61 353.818 206.728C353.82 207.956 353.46 209.031 352.738 209.953C352.016 210.864 351.036 211.579 349.798 212.096C348.56 212.603 347.162 212.857 345.606 212.86C344.268 212.862 343.018 212.667 341.855 212.274C340.703 211.871 339.748 211.259 338.99 210.438C338.243 209.606 337.814 208.554 337.702 207.282L333.492 207.289C333.627 209.131 334.194 210.747 335.194 212.138C336.205 213.529 337.589 214.612 339.344 215.387C341.111 216.162 343.2 216.548 345.612 216.544C348.199 216.539 350.397 216.102 352.204 215.233C354.023 214.364 355.402 213.194 356.343 211.723C357.294 210.252 357.768 208.607 357.765 206.787C357.762 205.208 357.436 203.876 356.788 202.792C356.139 201.708 355.315 200.821 354.316 200.132C353.328 199.432 352.291 198.88 351.205 198.477C350.13 198.073 349.154 197.757 348.276 197.528L344.854 196.613C344.229 196.449 343.543 196.237 342.797 195.975C342.051 195.702 341.338 195.358 340.657 194.943C339.977 194.516 339.417 193.985 338.977 193.35C338.548 192.704 338.333 191.932 338.331 191.033C338.33 189.958 338.635 188.998 339.247 188.153C339.871 187.308 340.736 186.643 341.842 186.159C342.96 185.674 344.264 185.431 345.755 185.428C347.795 185.425 349.517 185.882 350.922 186.801ZM328.067 199.142C328.073 202.694 327.437 205.765 326.159 208.355C324.881 210.944 323.124 212.943 320.89 214.35C318.656 215.757 316.103 216.464 313.23 216.469C310.358 216.474 307.802 215.776 305.563 214.377C303.324 212.977 301.56 210.985 300.273 208.4C298.986 205.814 298.339 202.746 298.333 199.193C298.327 195.641 298.963 192.57 300.241 189.98C301.519 187.391 303.276 185.392 305.51 183.985C307.744 182.578 310.297 181.872 313.17 181.867C316.042 181.862 318.598 182.559 320.837 183.958C323.076 185.358 324.84 187.35 326.127 189.936C327.414 192.521 328.061 195.59 328.067 199.142ZM324.12 199.149C324.115 196.232 323.623 193.772 322.643 191.767C321.675 189.762 320.362 188.246 318.705 187.218C317.059 186.191 315.216 185.679 313.177 185.682C311.137 185.686 309.291 186.204 307.637 187.238C305.994 188.271 304.687 189.792 303.714 191.8C302.753 193.808 302.275 196.27 302.28 199.187C302.285 202.103 302.772 204.564 303.74 206.568C304.719 208.573 306.032 210.089 307.678 211.117C309.336 212.145 311.184 212.657 313.223 212.653C315.263 212.65 317.104 212.131 318.746 211.098C320.4 210.064 321.708 208.543 322.669 206.535C323.641 204.527 324.125 202.065 324.12 199.149ZM291.458 182.365L291.517 216.046L287.57 216.053L269.17 189.64L268.841 189.64L268.887 216.085L264.809 216.092L264.75 182.411L268.697 182.404L287.163 208.883L287.491 208.882L287.445 182.372L291.458 182.365ZM365.868 215.917L361.592 215.924L373.901 182.222L378.111 182.214L390.537 215.874L386.261 215.881L382.868 206.375H369.236L365.868 215.917ZM381.589 202.792L376.147 187.546L375.884 187.547L370.501 202.792H381.589ZM395.724 182.184L395.783 215.865L415.518 215.83L415.511 212.212L399.855 212.24L399.803 182.177L395.724 182.184ZM264.906 272.092L264.848 238.411L276.228 238.391C278.859 238.387 281.02 238.833 282.71 239.729C284.4 240.614 285.652 241.834 286.466 243.39C287.28 244.945 287.689 246.715 287.692 248.699C287.696 250.684 287.293 252.444 286.484 253.981C285.676 255.517 284.433 256.725 282.758 257.605C282.641 257.666 282.52 257.729 282.396 257.795L282.396 257.795L282.393 257.796L282.392 257.797L282.391 257.797L282.391 257.797C282.126 257.937 281.843 258.085 281.547 258.233L289.048 272.05L284.312 272.058L276.329 258.916L268.962 258.928L268.985 272.085L264.906 272.092ZM276.192 255.232L268.955 255.245L268.932 242.022L276.103 242.01C277.923 242.007 279.387 242.284 280.495 242.841C281.604 243.387 282.411 244.164 282.917 245.172C283.423 246.18 283.677 247.358 283.679 248.706C283.682 250.055 283.432 251.218 282.929 252.194C282.437 253.16 281.638 253.907 280.532 254.435C279.436 254.963 277.99 255.229 276.192 255.232ZM321.01 264.364C322.288 261.774 322.924 258.703 322.918 255.151C322.912 251.599 322.265 248.53 320.978 245.945C319.691 243.359 317.927 241.367 315.688 239.967C313.449 238.568 310.894 237.871 308.021 237.876C305.148 237.881 302.595 238.587 300.361 239.994C298.127 241.401 296.371 243.4 295.092 245.99C293.814 248.579 293.178 251.65 293.184 255.202C293.19 258.755 293.837 261.824 295.124 264.409C296.412 266.994 298.175 268.986 300.414 270.386C302.653 271.785 305.209 272.483 308.081 272.478C310.954 272.473 313.507 271.766 315.741 270.359C317.975 268.952 319.732 266.953 321.01 264.364ZM317.495 247.776C318.474 249.781 318.966 252.241 318.971 255.158C318.976 258.074 318.493 260.536 317.52 262.544C316.559 264.552 315.251 266.073 313.598 267.107C311.955 268.14 310.114 268.659 308.074 268.662C306.035 268.666 304.187 268.154 302.53 267.126C300.883 266.098 299.57 264.582 298.591 262.577C297.623 260.573 297.136 258.112 297.131 255.196C297.126 252.279 297.604 249.817 298.565 247.809C299.538 245.801 300.845 244.28 302.488 243.247C304.142 242.213 305.988 241.695 308.028 241.691C310.067 241.688 311.91 242.2 313.556 243.227C315.213 244.255 316.526 245.771 317.495 247.776Z" fill="black"/>
<defs>
<filter id="filter0_ii_13_2" x="164.64" y="150.26" width="163.482" height="186.903" filterUnits="userSpaceOnUse" color-interpolation-filters="sRGB">
<feFlood flood-opacity="0" result="BackgroundImageFix"/>
<feBlend mode="normal" in="SourceGraphic" in2="BackgroundImageFix" result="shape"/>
<feColorMatrix in="SourceAlpha" type="matrix" values="0 0 0 0 0 0 0 0 0 0 0 0 0 0 0 0 0 0 127 0" result="hardAlpha"/>
<feOffset dx="44.7318" dy="-22.3659"/>
<feGaussianBlur stdDeviation="22.3659"/>
<feComposite in2="hardAlpha" operator="arithmetic" k2="-1" k3="1"/>
<feColorMatrix type="matrix" values="0 0 0 0 0.866667 0 0 0 0 0.866667 0 0 0 0 0.866667 0 0 0 0.25 0"/>
<feBlend mode="normal" in2="shape" result="effect1_innerShadow_13_2"/>
<feColorMatrix in="SourceAlpha" type="matrix" values="0 0 0 0 0 0 0 0 0 0 0 0 0 0 0 0 0 0 127 0" result="hardAlpha"/>
<feOffset dx="-4.47318" dy="-1.78927"/>
<feGaussianBlur stdDeviation="4.47318"/>
<feComposite in2="hardAlpha" operator="arithmetic" k2="-1" k3="1"/>
<feColorMatrix type="matrix" values="0 0 0 0 0 0 0 0 0 0 0 0 0 0 0 0 0 0 0.25 0"/>
<feBlend mode="normal" in2="effect1_innerShadow_13_2" result="effect2_innerShadow_13_2"/>
</filter>
<filter id="filter1_if_13_2" x="146.189" y="167.054" width="132.169" height="182.43" filterUnits="userSpaceOnUse" color-interpolation-filters="sRGB">
<feFlood flood-opacity="0" result="BackgroundImageFix"/>
<feBlend mode="normal" in="SourceGraphic" in2="BackgroundImageFix" result="shape"/>
<feColorMatrix in="SourceAlpha" type="matrix" values="0 0 0 0 0 0 0 0 0 0 0 0 0 0 0 0 0 0 127 0" result="hardAlpha"/>
<feOffset dx="-378" dy="227"/>
<feGaussianBlur stdDeviation="30"/>
<feComposite in2="hardAlpha" operator="arithmetic" k2="-1" k3="1"/>
<feColorMatrix type="matrix" values="0 0 0 0 1 0 0 0 0 0.975 0 0 0 0 0.975 0 0 0 0.25 0"/>
<feBlend mode="normal" in2="shape" result="effect1_innerShadow_13_2"/>
<feGaussianBlur stdDeviation="4.47318" result="effect2_foregroundBlur_13_2"/>
</filter>
<filter id="filter2_ii_13_2" x="332.785" y="350.989" width="111.178" height="127.047" filterUnits="userSpaceOnUse" color-interpolation-filters="sRGB">
<feFlood flood-opacity="0" result="BackgroundImageFix"/>
<feBlend mode="normal" in="SourceGraphic" in2="BackgroundImageFix" result="shape"/>
<feColorMatrix in="SourceAlpha" type="matrix" values="0 0 0 0 0 0 0 0 0 0 0 0 0 0 0 0 0 0 127 0" result="hardAlpha"/>
<feOffset dx="44.7318" dy="-22.3659"/>
<feGaussianBlur stdDeviation="22.3659"/>
<feComposite in2="hardAlpha" operator="arithmetic" k2="-1" k3="1"/>
<feColorMatrix type="matrix" values="0 0 0 0 0.866667 0 0 0 0 0.866667 0 0 0 0 0.866667 0 0 0 0.25 0"/>
<feBlend mode="normal" in2="shape" result="effect1_innerShadow_13_2"/>
<feColorMatrix in="SourceAlpha" type="matrix" values="0 0 0 0 0 0 0 0 0 0 0 0 0 0 0 0 0 0 127 0" result="hardAlpha"/>
<feOffset dx="-4.47318" dy="-1.78927"/>
<feGaussianBlur stdDeviation="4.47318"/>
<feComposite in2="hardAlpha" operator="arithmetic" k2="-1" k3="1"/>
<feColorMatrix type="matrix" values="0 0 0 0 0 0 0 0 0 0 0 0 0 0 0 0 0 0 0.25 0"/>
<feBlend mode="normal" in2="effect1_innerShadow_13_2" result="effect2_innerShadow_13_2"/>
</filter>
<filter id="filter3_if_13_2" x="338.403" y="361.973" width="79.8654" height="122.573" filterUnits="userSpaceOnUse" color-interpolation-filters="sRGB">
<feFlood flood-opacity="0" result="BackgroundImageFix"/>
<feBlend mode="normal" in="SourceGraphic" in2="BackgroundImageFix" result="shape"/>
<feColorMatrix in="SourceAlpha" type="matrix" values="0 0 0 0 0 0 0 0 0 0 0 0 0 0 0 0 0 0 127 0" result="hardAlpha"/>
<feOffset dx="-378" dy="227"/>
<feGaussianBlur stdDeviation="30"/>
<feComposite in2="hardAlpha" operator="arithmetic" k2="-1" k3="1"/>
<feColorMatrix type="matrix" values="0 0 0 0 1 0 0 0 0 0.975 0 0 0 0 0.975 0 0 0 0.25 0"/>
<feBlend mode="normal" in2="shape" result="effect1_innerShadow_13_2"/>
<feGaussianBlur stdDeviation="4.47318" result="effect2_foregroundBlur_13_2"/>
</filter>
<filter id="filter4_ii_13_2" x="241.399" y="395.944" width="148.865" height="128.74" filterUnits="userSpaceOnUse" color-interpolation-filters="sRGB">
<feFlood flood-opacity="0" result="BackgroundImageFix"/>
<feBlend mode="normal" in="SourceGraphic" in2="BackgroundImageFix" result="shape"/>
<feColorMatrix in="SourceAlpha" type="matrix" values="0 0 0 0 0 0 0 0 0 0 0 0 0 0 0 0 0 0 127 0" result="hardAlpha"/>
<feOffset dx="44.7318" dy="-22.3659"/>
<feGaussianBlur stdDeviation="22.3659"/>
<feComposite in2="hardAlpha" operator="arithmetic" k2="-1" k3="1"/>
<feColorMatrix type="matrix" values="0 0 0 0 0.866667 0 0 0 0 0.866667 0 0 0 0 0.866667 0 0 0 0.25 0"/>
<feBlend mode="normal" in2="shape" result="effect1_innerShadow_13_2"/>
<feColorMatrix in="SourceAlpha" type="matrix" values="0 0 0 0 0 0 0 0 0 0 0 0 0 0 0 0 0 0 127 0" result="hardAlpha"/>
<feOffset dx="-4.47318" dy="-1.78927"/>
<feGaussianBlur stdDeviation="4.47318"/>
<feComposite in2="hardAlpha" operator="arithmetic" k2="-1" k3="1"/>
<feColorMatrix type="matrix" values="0 0 0 0 0 0 0 0 0 0 0 0 0 0 0 0 0 0 0.25 0"/>
<feBlend mode="normal" in2="effect1_innerShadow_13_2" result="effect2_innerShadow_13_2"/>
</filter>
<filter id="filter5_if_13_2" x="225.62" y="412.093" width="117.552" height="124.267" filterUnits="userSpaceOnUse" color-interpolation-filters="sRGB">
<feFlood flood-opacity="0" result="BackgroundImageFix"/>
<feBlend mode="normal" in="SourceGraphic" in2="BackgroundImageFix" result="shape"/>
<feColorMatrix in="SourceAlpha" type="matrix" values="0 0 0 0 0 0 0 0 0 0 0 0 0 0 0 0 0 0 127 0" result="hardAlpha"/>
<feOffset dx="-378" dy="227"/>
<feGaussianBlur stdDeviation="30"/>
<feComposite in2="hardAlpha" operator="arithmetic" k2="-1" k3="1"/>
<feColorMatrix type="matrix" values="0 0 0 0 1 0 0 0 0 0.975 0 0 0 0 0.975 0 0 0 0.25 0"/>
<feBlend mode="normal" in2="shape" result="effect1_innerShadow_13_2"/>
<feGaussianBlur stdDeviation="4.47318" result="effect2_foregroundBlur_13_2"/>
</filter>
<filter id="filter6_d_13_2" x="169.676" y="103.21" width="70.3013" height="64.0389" filterUnits="userSpaceOnUse" color-interpolation-filters="sRGB">
<feFlood flood-opacity="0" result="BackgroundImageFix"/>
<feColorMatrix in="SourceAlpha" type="matrix" values="0 0 0 0 0 0 0 0 0 0 0 0 0 0 0 0 0 0 127 0" result="hardAlpha"/>
<feOffset dx="9.841" dy="3.57855"/>
<feGaussianBlur stdDeviation="1.78927"/>
<feComposite in2="hardAlpha" operator="out"/>
<feColorMatrix type="matrix" values="0 0 0 0 1 0 0 0 0 1 0 0 0 0 1 0 0 0 0.25 0"/>
<feBlend mode="normal" in2="BackgroundImageFix" result="effect1_dropShadow_13_2"/>
<feBlend mode="normal" in="SourceGraphic" in2="effect1_dropShadow_13_2" result="shape"/>
</filter>
<filter id="filter7_ii_13_2" x="252.201" y="326.751" width="125.056" height="98.2165" filterUnits="userSpaceOnUse" color-interpolation-filters="sRGB">
<feFlood flood-opacity="0" result="BackgroundImageFix"/>
<feBlend mode="normal" in="SourceGraphic" in2="BackgroundImageFix" result="shape"/>
<feColorMatrix in="SourceAlpha" type="matrix" values="0 0 0 0 0 0 0 0 0 0 0 0 0 0 0 0 0 0 127 0" result="hardAlpha"/>
<feOffset dx="44.7318" dy="-22.3659"/>
<feGaussianBlur stdDeviation="22.3659"/>
<feComposite in2="hardAlpha" operator="arithmetic" k2="-1" k3="1"/>
<feColorMatrix type="matrix" values="0 0 0 0 0.866667 0 0 0 0 0.866667 0 0 0 0 0.866667 0 0 0 0.25 0"/>
<feBlend mode="normal" in2="shape" result="effect1_innerShadow_13_2"/>
<feColorMatrix in="SourceAlpha" type="matrix" values="0 0 0 0 0 0 0 0 0 0 0 0 0 0 0 0 0 0 127 0" result="hardAlpha"/>
<feOffset dx="-4.47318" dy="-1.78927"/>
<feGaussianBlur stdDeviation="4.47318"/>
<feComposite in2="hardAlpha" operator="arithmetic" k2="-1" k3="1"/>
<feColorMatrix type="matrix" values="0 0 0 0 0.00833333 0 0 0 0 0 0 0 0 0 0 0 0 0 0.25 0"/>
<feBlend mode="normal" in2="effect1_innerShadow_13_2" result="effect2_innerShadow_13_2"/>
</filter>
<linearGradient id="paint0_linear_13_2" x1="313.865" y1="348.471" x2="194.375" y2="93.0837" gradientUnits="userSpaceOnUse">
<stop stop-color="#D9D9D9"/>
<stop offset="1" stop-color="#D9D9D9" stop-opacity="0"/>
</linearGradient>
<linearGradient id="paint1_linear_13_2" x1="299.888" y1="351.845" x2="180.398" y2="96.4577" gradientUnits="userSpaceOnUse">
<stop stop-color="#D9D9D9"/>
<stop offset="1" stop-color="#D9D9D9" stop-opacity="0"/>
</linearGradient>
<linearGradient id="paint2_linear_13_2" x1="387.999" y1="472.658" x2="317.367" y2="361.355" gradientUnits="userSpaceOnUse">
<stop stop-color="#D9D9D9"/>
<stop offset="1" stop-color="#D9D9D9" stop-opacity="0"/>
</linearGradient>
<linearGradient id="paint3_linear_13_2" x1="398.09" y1="470.223" x2="327.458" y2="358.919" gradientUnits="userSpaceOnUse">
<stop stop-color="#D9D9D9"/>
<stop offset="1" stop-color="#D9D9D9" stop-opacity="0"/>
</linearGradient>
<linearGradient id="paint4_linear_13_2" x1="313.253" y1="544.578" x2="282.681" y2="384.436" gradientUnits="userSpaceOnUse">
<stop stop-color="#D9D9D9"/>
<stop offset="1" stop-color="#D9D9D9" stop-opacity="0"/>
</linearGradient>
<linearGradient id="paint5_linear_13_2" x1="301.947" y1="547.307" x2="271.376" y2="387.166" gradientUnits="userSpaceOnUse">
<stop stop-color="#D9D9D9"/>
<stop offset="1" stop-color="#D9D9D9" stop-opacity="0"/>
</linearGradient>
<linearGradient id="paint6_linear_13_2" x1="222.918" y1="148.052" x2="97.2498" y2="107.066" gradientUnits="userSpaceOnUse">
<stop/>
<stop offset="1" stop-opacity="0"/>
</linearGradient>
<linearGradient id="paint7_linear_13_2" x1="157.596" y1="100.37" x2="220.604" y2="279.047" gradientUnits="userSpaceOnUse">
<stop stop-color="#5460F7"/>
<stop offset="1" stop-color="#5460F7" stop-opacity="0"/>
</linearGradient>
<linearGradient id="paint8_linear_13_2" x1="222.418" y1="120.539" x2="187.171" y2="172.02" gradientUnits="userSpaceOnUse">
<stop stop-color="#5460F7"/>
<stop offset="1" stop-color="#5460F7" stop-opacity="0"/>
</linearGradient>
<linearGradient id="paint9_linear_13_2" x1="193.149" y1="99.4862" x2="124.534" y2="148.144" gradientUnits="userSpaceOnUse">
<stop stop-color="#5460F7"/>
<stop offset="1" stop-color="#5460F7" stop-opacity="0"/>
</linearGradient>
<linearGradient id="paint10_linear_13_2" x1="181.091" y1="88.9461" x2="163.686" y2="102.986" gradientUnits="userSpaceOnUse">
<stop stop-color="#5460F7"/>
<stop offset="1" stop-color="#5460F7" stop-opacity="0"/>
</linearGradient>
<linearGradient id="paint11_linear_13_2" x1="241.557" y1="129.842" x2="236.907" y2="115.677" gradientUnits="userSpaceOnUse">
<stop stop-color="#5460F7"/>
<stop offset="1" stop-color="#5460F7" stop-opacity="0"/>
</linearGradient>
<linearGradient id="paint12_linear_13_2" x1="329.939" y1="369.043" x2="199.749" y2="487.936" gradientUnits="userSpaceOnUse">
<stop/>
<stop offset="1" stop-opacity="0"/>
</linearGradient>
<linearGradient id="paint13_linear_13_2" x1="231.974" y1="413.401" x2="479.592" y2="457.548" gradientUnits="userSpaceOnUse">
<stop stop-color="#5460F7"/>
<stop offset="1" stop-color="#5460F7" stop-opacity="0"/>
</linearGradient>
<linearGradient id="paint14_linear_13_2" x1="233.845" y1="378.723" x2="238.694" y2="408.154" gradientUnits="userSpaceOnUse">
<stop stop-color="#5460F7"/>
<stop offset="1" stop-color="#5460F7" stop-opacity="0"/>
</linearGradient>
<linearGradient id="paint15_linear_13_2" x1="321.061" y1="335.44" x2="301.565" y2="331.523" gradientUnits="userSpaceOnUse">
<stop stop-color="#5460F7"/>
<stop offset="1" stop-color="#5460F7" stop-opacity="0"/>
</linearGradient>
</defs>
</svg>
